<?xml version="1.0" standalone="no"?>
<!DOCTYPE svg PUBLIC "-//W3C//DTD SVG 20010904//EN"
 "http://www.w3.org/TR/2001/REC-SVG-20010904/DTD/svg10.dtd">
<svg version="1.0" xmlns="http://www.w3.org/2000/svg"
 width="700.000000pt" height="700.000000pt" viewBox="0 0 700.000000 700.000000"
 preserveAspectRatio="xMidYMid meet">
<metadata>
Created by potrace 1.11, written by Peter Selinger 2001-2013
</metadata>
<g transform="translate(0.000000,700.000000) scale(0.100000,-0.100000)"
fill="#000000" stroke="none">
<path d="M3890 3598 l0 -2068 395 0 c369 0 395 1 396 18 0 9 1 372 1 806 l1
788 43 20 c50 21 168 53 234 62 25 3 55 8 68 11 68 13 269 18 730 18 509 1
513 1 517 21 3 12 3 192 2 401 l-2 380 -530 -1 c-473 0 -663 -5 -775 -19 -98
-13 -196 -32 -218 -43 -9 -5 -29 -12 -43 -15 l-26 -7 0 450 0 450 1092 0 1091
0 0 395 c0 273 -3 396 -10 397 -6 1 -676 2 -1488 3 l-1478 1 0 -2068z"/>
<path d="M1718 4555 c-2 -1 -32 -5 -68 -9 -460 -43 -893 -261 -1164 -586 -117
-139 -204 -295 -259 -461 -32 -95 -43 -141 -64 -269 -14 -81 -7 -428 10 -510
31 -156 33 -163 80 -285 26 -68 118 -242 148 -279 5 -6 36 -46 69 -89 169
-216 414 -391 705 -500 68 -26 228 -71 290 -82 17 -2 39 -7 50 -9 25 -5 107
-15 165 -21 96 -10 330 -5 435 10 104 14 124 17 185 30 14 3 36 7 49 10 121
23 326 107 476 195 40 24 201 142 241 177 l21 19 0 702 0 702 -658 0 c-363 0
-659 -4 -659 -8 0 -7 147 -336 244 -547 13 -27 36 -78 51 -112 l28 -63 118 0
119 0 1 -27 c3 -86 -3 -229 -9 -235 -10 -10 -190 -68 -232 -74 -19 -3 -46 -8
-60 -10 -88 -19 -339 -7 -455 21 -276 66 -516 263 -592 485 -45 131 -54 308
-24 457 68 328 367 558 780 599 288 29 598 -48 814 -202 26 -19 51 -34 56 -34
5 0 31 25 58 56 26 31 57 66 68 78 11 13 43 49 70 81 28 33 70 82 94 109 24
28 55 65 70 81 14 17 52 60 84 97 31 36 57 70 57 75 -1 18 -251 181 -350 228
-160 77 -338 133 -540 171 -107 21 -173 27 -317 29 -100 1 -183 2 -185 0z"/>
</g>
</svg>
